<svg width="40" height="24" viewBox="0 0 40 24" fill="none" xmlns="http://www.w3.org/2000/svg">
<path d="M3.23937 14.2895C3.02757 14.3488 2.80434 14.38 2.57488 14.38V14.2108C2.79084 14.2496 3.01303 14.2744 3.23937 14.2895Z" fill="#063565"/>
<path d="M2.96735 9.06696C2.83445 9.07774 2.70363 9.09174 2.57488 9.10898V9.03572C2.70778 9.03572 2.83964 9.04649 2.96735 9.06696Z" fill="#063565"/>
<path d="M37.5424 15.3196C36.0017 16.9207 34.4588 18.5207 32.917 20.1208C31.7645 21.3157 30.3463 23.5806 28.5065 23.4049C26.702 23.2315 25.6056 21.1412 26.5805 19.4969C27.1806 18.4841 28.2656 17.6437 29.0713 16.8076C29.85 16.0005 30.5934 15.0901 31.4728 14.4026C31.4697 14.3951 31.4665 14.3875 31.4624 14.38H24.5787C25.0563 13.6085 25.3335 12.6905 25.3335 11.7079C25.3335 10.7252 25.0563 9.80719 24.5787 9.03572H31.4042C30.04 7.49169 28.5117 6.10821 27.1349 4.57712C26.2026 3.54166 25.8309 2.04936 26.8058 0.872757C28.0133 -0.583991 29.7275 -0.0226262 30.8602 1.14105C32.4425 2.76696 34.0082 4.41119 35.5832 6.04464C36.3256 6.81396 37.0669 7.58435 37.8093 8.35367C38.4706 9.03895 39.3625 9.73715 39.7664 10.6293C40.6718 12.6302 38.7416 14.0729 37.5424 15.3196Z" fill="#063565"/>
<path d="M3.23937 14.2895C3.02757 14.3488 2.80434 14.38 2.57488 14.38V14.2108C2.79084 14.2496 3.01303 14.2744 3.23937 14.2895Z" fill="#063565"/>
<path d="M2.96735 9.06696C2.83445 9.07774 2.70363 9.09174 2.57488 9.10898V9.03572C2.70778 9.03572 2.83964 9.04649 2.96735 9.06696Z" fill="#063565"/>
<path d="M23.1812 11.7079C23.1812 13.0235 22.28 14.1246 21.085 14.38H2.57488C2.80434 14.38 3.02757 14.3488 3.23937 14.2895C3.01303 14.2744 2.79084 14.2496 2.57488 14.2108V14.38C1.15247 14.38 0 13.1829 0 11.7079C0 10.2328 1.15247 9.03572 2.57488 9.03572V9.10898C2.70363 9.09174 2.83445 9.07774 2.96735 9.06696C2.83964 9.04649 2.70778 9.03572 2.57488 9.03572H21.0902C22.2831 9.29431 23.1812 10.3944 23.1812 11.7079Z" fill="#063565"/>
</svg>
