<svg width="284" height="80" viewBox="0 0 284 80" fill="none" xmlns="http://www.w3.org/2000/svg">
<path d="M100.682 35.0566C100.365 34.721 100.197 34.2735 100.206 33.8073V1.96843C100.188 1.50226 100.365 1.04542 100.682 0.700464C100.989 0.374151 101.418 0.187687 101.866 0.206333H121.445C121.883 0.19701 122.312 0.374151 122.61 0.700464C122.918 1.0361 123.076 1.47429 123.067 1.92181C123.086 2.36932 122.918 2.79819 122.61 3.1245C122.302 3.44149 121.883 3.60932 121.445 3.6H103.46V16.1025H116.513C116.951 16.0932 117.38 16.2703 117.678 16.5966C117.986 16.9322 118.144 17.3704 118.135 17.818C118.163 18.2655 118.014 18.7037 117.715 19.0393C117.417 19.3563 117.007 19.5427 116.569 19.5334H103.516V32.1664H121.445C121.883 32.1571 122.302 32.3249 122.61 32.6419C122.918 32.9682 123.086 33.3971 123.067 33.8446C123.076 34.2921 122.918 34.7303 122.61 35.066C122.312 35.3923 121.883 35.5694 121.445 35.5601H101.866C101.418 35.5787 100.98 35.3923 100.682 35.0566Z" fill="#063565"/>
<path d="M121.445 35.7746H101.866C101.372 35.7746 100.896 35.5601 100.57 35.1872C100.206 34.8236 100.001 34.3201 100.001 33.8073V1.96844C99.9826 1.44633 100.178 0.942869 100.533 0.560616C100.868 0.206332 101.334 0.00122931 101.819 0.00122931H121.445C121.939 -0.00809394 122.424 0.197009 122.759 0.560616C123.104 0.933546 123.281 1.41836 123.272 1.92182C123.281 2.41595 123.104 2.90076 122.759 3.25505C122.414 3.60933 121.939 3.80511 121.445 3.79578H103.731V15.916H116.522C117.016 15.9067 117.501 16.1025 117.837 16.4754C118.182 16.8483 118.359 17.3331 118.349 17.8366C118.368 18.3401 118.172 18.8342 117.818 19.1978C117.482 19.5521 117.016 19.7572 116.531 19.7572H103.656V31.9986H121.445C121.939 31.9893 122.414 32.1851 122.759 32.5394C123.104 32.8937 123.281 33.3785 123.272 33.8726C123.281 34.3761 123.104 34.8609 122.759 35.2338C122.424 35.5974 121.939 35.7932 121.445 35.7746ZM100.822 34.8888C101.073 35.1779 101.446 35.3457 101.829 35.3457H121.445C121.836 35.355 122.209 35.1965 122.47 34.9075C122.75 34.6091 122.89 34.2176 122.88 33.8167C122.899 33.4251 122.75 33.0428 122.48 32.7538C122.209 32.4741 121.836 32.3249 121.454 32.3343H103.255V19.2817H116.522C116.904 19.2817 117.268 19.1232 117.529 18.8435C117.809 18.5545 117.958 18.1629 117.948 17.762C117.958 17.3611 117.818 16.9695 117.538 16.6712C117.277 16.3822 116.904 16.2237 116.513 16.233H103.255V3.40421H121.445C121.827 3.41353 122.2 3.26436 122.47 2.98467C122.741 2.69565 122.89 2.31339 122.871 1.92182C122.88 1.52092 122.741 1.12934 122.461 0.830998C122.2 0.541977 121.827 0.383481 121.445 0.392804H101.866C101.484 0.392804 101.12 0.5513 100.859 0.830998C100.57 1.13867 100.421 1.53956 100.439 1.9591V33.798C100.421 34.1989 100.561 34.5905 100.822 34.8888Z" fill="#063565"/>
<path d="M130.386 34.8888C128.903 34.3294 127.579 33.4064 126.545 32.2131C126.283 31.924 126.125 31.5511 126.106 31.1595C126.106 30.6281 126.358 30.1247 126.778 29.7983C127.067 29.5466 127.44 29.3974 127.822 29.3881C128.307 29.3881 128.754 29.6305 129.034 30.0221C129.742 30.8891 130.656 31.5511 131.7 31.952C132.866 32.4182 134.106 32.6512 135.355 32.6326C136.893 32.7445 138.432 32.3622 139.737 31.5418C140.669 30.8892 141.229 29.8263 141.238 28.6889C141.238 27.598 140.688 26.5818 139.774 25.9758C138.366 25.0901 136.772 24.5307 135.113 24.3442C132.884 24.0739 130.768 23.2068 128.997 21.8269C127.738 20.7454 127.02 19.1605 127.039 17.501C126.936 15.5151 127.822 13.5945 129.397 12.3825C131.104 11.1332 133.192 10.4899 135.308 10.5738C136.959 10.5365 138.599 10.8815 140.091 11.5807C141.415 12.2147 142.553 13.175 143.392 14.3777C143.587 14.6947 143.709 15.0489 143.727 15.4219C143.727 15.916 143.476 16.3822 143.056 16.6432C142.823 16.8017 142.543 16.8856 142.264 16.867C141.695 16.867 141.163 16.6246 140.8 16.1864C139.448 14.4989 137.369 13.5572 135.206 13.6505C133.901 13.5852 132.614 13.9395 131.532 14.6667C130.087 15.6456 129.714 17.6128 130.703 19.0579C130.908 19.3563 131.16 19.6173 131.449 19.8318C132.847 20.6802 134.423 21.2116 136.045 21.3981C139.019 21.9388 141.154 22.8245 142.431 24.0459C143.69 25.2206 144.389 26.8708 144.352 28.5956C144.371 29.9289 143.97 31.2341 143.205 32.3249C142.394 33.4624 141.275 34.3481 139.989 34.8888C138.516 35.5228 136.931 35.8398 135.327 35.8211C133.639 35.8211 131.961 35.5135 130.386 34.8888Z" fill="#063565"/>
<path d="M135.355 35.9983C133.63 36.0076 131.915 35.7 130.311 35.066C128.801 34.4879 127.458 33.5556 126.395 32.3343C126.116 32.008 125.948 31.5977 125.929 31.1689C125.929 30.5815 126.209 30.0221 126.666 29.6585C126.992 29.3788 127.412 29.211 127.84 29.2016C128.381 29.2016 128.885 29.472 129.202 29.9102C129.882 30.74 130.768 31.3833 131.775 31.7749C132.912 32.2317 134.134 32.4555 135.355 32.4368C136.856 32.5487 138.348 32.1758 139.625 31.3926C140.511 30.7773 141.033 29.761 141.024 28.6889C141.024 27.6633 140.501 26.703 139.644 26.1343C138.264 25.2672 136.707 24.7265 135.094 24.54C132.838 24.2603 130.703 23.3746 128.903 21.9761C127.57 20.876 126.806 19.2258 126.815 17.501C126.712 15.4499 127.626 13.4826 129.248 12.224C130.992 10.9467 133.117 10.2848 135.28 10.3594C136.968 10.3221 138.637 10.6763 140.166 11.3942C141.518 12.0562 142.683 13.0538 143.541 14.2938C143.765 14.6387 143.895 15.0396 143.914 15.4498C143.923 16.0186 143.634 16.5407 143.159 16.839C142.888 17.0255 142.562 17.1187 142.226 17.1001C141.602 17.1001 141.014 16.839 140.613 16.3542C139.289 14.7133 137.276 13.7996 135.169 13.8835C133.919 13.809 132.67 14.1353 131.616 14.8159C130.264 15.7389 129.91 17.5756 130.824 18.9368C131.02 19.2165 131.253 19.4682 131.532 19.664C132.912 20.4937 134.451 21.0065 136.045 21.193C139.047 21.743 141.229 22.6474 142.571 23.8967C143.858 25.0994 144.585 26.7962 144.557 28.5583C144.576 29.9289 144.156 31.2714 143.373 32.3902C142.553 33.5743 141.415 34.5066 140.091 35.0753C138.59 35.7093 136.977 36.0263 135.355 35.9983ZM127.84 29.5653C127.495 29.5653 127.169 29.6958 126.908 29.9289C126.265 30.3857 126.116 31.2807 126.572 31.9147C126.61 31.9613 126.647 32.0079 126.684 32.0546C127.701 33.22 128.978 34.115 130.414 34.6651C131.971 35.2804 133.63 35.5974 135.308 35.5974C136.875 35.6067 138.422 35.2897 139.858 34.6651C141.107 34.143 142.18 33.2852 142.972 32.1944C143.709 31.1409 144.1 29.8822 144.082 28.5956C144.119 26.9268 143.438 25.3232 142.217 24.1857C140.968 22.9923 138.851 22.1253 135.933 21.5846C134.283 21.3888 132.689 20.8387 131.271 19.981C129.77 18.8901 129.444 16.7924 130.535 15.2914C130.759 14.9837 131.038 14.7133 131.355 14.4989C132.474 13.753 133.807 13.3801 135.15 13.4454C137.369 13.3521 139.504 14.3217 140.902 16.0559C141.219 16.4474 141.704 16.6712 142.208 16.6619C142.45 16.6805 142.683 16.6059 142.879 16.4754C143.252 16.2516 143.485 15.8507 143.476 15.4125C143.448 15.0769 143.345 14.7599 143.168 14.4802C142.347 13.3055 141.238 12.3545 139.951 11.7299C138.478 11.0306 136.865 10.695 135.234 10.7323C133.164 10.6577 131.122 11.2824 129.444 12.5037C127.915 13.6878 127.067 15.5338 127.16 17.4637C127.16 19.0766 127.878 20.6149 129.118 21.6405C130.871 22.9924 132.95 23.8408 135.141 24.1112C136.819 24.3069 138.432 24.8757 139.858 25.78C140.818 26.4233 141.396 27.5048 141.396 28.6609C141.387 29.8636 140.79 30.9824 139.811 31.6723C138.469 32.5114 136.893 32.9123 135.308 32.8004C134.031 32.8191 132.763 32.586 131.579 32.1105C130.535 31.6909 129.612 31.001 128.903 30.1247C128.661 29.7797 128.26 29.5653 127.84 29.5653Z" fill="#063565"/>
<path d="M159.735 32.586C160.024 32.9403 160.173 33.3971 160.155 33.854C160.164 34.3108 159.996 34.749 159.67 35.0753C159.334 35.4016 158.887 35.5788 158.421 35.5694H157.526C156.118 35.5881 154.738 35.1872 153.563 34.4133C152.389 33.6395 151.447 32.558 150.832 31.2901C150.16 29.9009 149.825 28.3719 149.853 26.8335V14.7133H147.13C146.729 14.7319 146.338 14.5735 146.067 14.2844C145.797 13.9954 145.657 13.6132 145.667 13.2216C145.648 12.8114 145.797 12.4198 146.067 12.1121C146.347 11.8231 146.729 11.6646 147.13 11.6833H149.843V4.66285C149.825 4.19668 149.983 3.74917 150.282 3.39488C150.571 3.06857 150.99 2.88211 151.428 2.90075C151.866 2.89143 152.295 3.06857 152.594 3.39488C152.901 3.73984 153.069 4.19668 153.051 4.66285V11.6833H157.805C158.206 11.6646 158.589 11.8231 158.868 12.1121C159.139 12.4198 159.278 12.8114 159.26 13.2216C159.269 13.6132 159.129 13.9954 158.868 14.2844C158.589 14.5735 158.206 14.7319 157.805 14.7133H153.06V26.8335C152.995 28.204 153.442 29.5559 154.309 30.6188C155.092 31.5791 156.286 32.1198 157.526 32.0918H158.654C159.073 32.0825 159.474 32.2597 159.735 32.586Z" fill="#063565"/>
<path d="M158.402 35.7746H157.526C156.081 35.7932 154.663 35.383 153.451 34.5905C152.249 33.7887 151.279 32.6792 150.654 31.3833C149.974 29.9661 149.629 28.4092 149.657 26.8335V14.9371H147.14C146.683 14.9557 146.245 14.7786 145.928 14.4429C145.629 14.1166 145.471 13.6878 145.48 13.2496C145.461 12.7927 145.62 12.3452 145.928 12.0002C146.245 11.6646 146.683 11.4875 147.14 11.5061H149.657V4.6815C149.638 4.16873 149.815 3.67459 150.142 3.28302C150.468 2.91009 150.943 2.70498 151.438 2.7143C151.932 2.70498 152.417 2.91008 152.752 3.27368C153.097 3.65594 153.284 4.15939 153.265 4.67217V11.4968H157.805C158.262 11.4782 158.7 11.6553 159.017 11.9909C159.325 12.3359 159.484 12.7834 159.465 13.2402C159.474 13.6878 159.316 14.1166 159.017 14.4429C158.7 14.7786 158.262 14.9557 157.805 14.9371H153.256V26.8335C153.2 28.1574 153.629 29.4534 154.458 30.4883C155.204 31.4019 156.342 31.924 157.526 31.8867H158.654C159.129 31.8681 159.595 32.0825 159.894 32.4555C160.211 32.847 160.379 33.3505 160.36 33.854C160.36 34.3667 160.164 34.8609 159.801 35.2151C159.437 35.5881 158.924 35.7932 158.402 35.7746ZM147.13 11.907C146.785 11.8791 146.44 12.0189 146.198 12.2706C145.974 12.5317 145.844 12.858 145.853 13.2029C145.844 13.5479 145.965 13.8835 146.198 14.1353C146.44 14.387 146.776 14.5269 147.13 14.4989H150.039V26.7869C150.002 28.2973 150.328 29.7983 150.971 31.1595C151.568 32.3995 152.491 33.453 153.638 34.2082C154.785 34.9541 156.127 35.3457 157.498 35.327H158.374C158.784 35.3363 159.195 35.1779 159.484 34.8888C159.773 34.6091 159.931 34.2176 159.922 33.8073C159.94 33.3971 159.81 32.9869 159.549 32.6699C159.325 32.3902 158.98 32.2317 158.616 32.241H157.526C156.23 32.269 154.99 31.7003 154.16 30.7027C153.265 29.6026 152.808 28.2134 152.864 26.7963V14.5455H157.805C158.15 14.5735 158.495 14.4336 158.738 14.1819C158.971 13.9302 159.092 13.5945 159.083 13.2496C159.083 12.9046 158.961 12.5783 158.738 12.3172C158.495 12.0655 158.15 11.935 157.805 11.9536H152.864V4.73744C152.883 4.3179 152.734 3.90767 152.454 3.6C152.193 3.31098 151.82 3.15249 151.428 3.16181C151.046 3.14316 150.682 3.30165 150.431 3.59067C150.16 3.90766 150.02 4.31789 150.039 4.72811V11.9443L147.13 11.907Z" fill="#063565"/>
<path d="M180.386 12.224C182.167 13.3335 183.603 14.9091 184.563 16.7738C185.589 18.7596 186.12 20.9692 186.092 23.2068V33.8446C186.101 34.2921 185.943 34.7303 185.635 35.066C185.337 35.3923 184.908 35.5694 184.47 35.5601C184.032 35.5694 183.612 35.4016 183.304 35.0846C182.987 34.749 182.829 34.2921 182.848 33.8353V31.1595C181.897 32.586 180.619 33.7607 179.118 34.5812C177.589 35.4203 175.874 35.8398 174.14 35.8212C172.107 35.8491 170.112 35.2711 168.397 34.1709C166.662 33.0428 165.255 31.4765 164.332 29.6212C162.327 25.5749 162.327 20.8294 164.332 16.7831C165.292 14.9184 166.728 13.3428 168.508 12.2333C172.145 10.0237 176.694 10.0237 180.33 12.2333H180.386V12.224ZM178.783 31.4112C180.079 30.5815 181.123 29.4161 181.813 28.0362C183.286 24.9875 183.286 21.4354 181.813 18.3867C181.123 17.0068 180.079 15.8321 178.783 14.993C177.505 14.1632 176.014 13.7251 174.485 13.7437C172.956 13.7251 171.445 14.1632 170.159 14.993C168.863 15.8321 167.819 17.0068 167.129 18.3867C165.656 21.4354 165.656 24.9875 167.129 28.0362C167.819 29.4161 168.872 30.5815 170.177 31.4112C171.473 32.2224 172.974 32.6512 174.503 32.6326C176.014 32.6512 177.505 32.2224 178.783 31.4112Z" fill="#063565"/>
<path d="M174.14 35.9983C172.07 36.0169 170.037 35.4296 168.294 34.3108C166.532 33.1734 165.115 31.5791 164.173 29.7051C163.148 27.682 162.635 25.4444 162.672 23.1788C162.644 20.9133 163.176 18.6664 164.22 16.6526C165.189 14.7413 166.653 13.1377 168.462 11.9909C172.154 9.74402 176.797 9.74402 180.489 11.9909C182.298 13.1377 183.761 14.7413 184.731 16.6526C185.775 18.6664 186.307 20.9133 186.279 23.1788V33.8167C186.288 34.3201 186.111 34.8049 185.766 35.1778C185.43 35.5508 184.945 35.7466 184.451 35.7372C183.957 35.7466 183.482 35.5508 183.137 35.1965C182.792 34.8236 182.605 34.3294 182.624 33.8167V31.7189C181.72 32.9496 180.573 33.9751 179.249 34.7303C177.683 35.5881 175.92 36.0263 174.14 35.9983ZM174.475 10.7696C172.424 10.7509 170.42 11.3103 168.676 12.3918C166.933 13.492 165.516 15.0303 164.574 16.867C163.567 18.8249 163.045 21.0065 163.073 23.2068C163.045 25.3978 163.548 27.5701 164.537 29.528C165.441 31.3273 166.812 32.8564 168.508 33.9565C170.177 35.0287 172.117 35.5881 174.102 35.5787C175.809 35.5974 177.487 35.1778 178.978 34.3574C180.442 33.5463 181.692 32.3995 182.624 31.001L182.987 30.4603V33.826C182.969 34.2362 183.109 34.6371 183.388 34.9354C183.659 35.2151 184.032 35.3643 184.414 35.355C184.805 35.3643 185.178 35.2058 185.439 34.9168C185.719 34.6185 185.859 34.2269 185.85 33.826V23.2068C185.878 21.0065 185.356 18.8249 184.349 16.867C183.407 15.0303 181.99 13.492 180.246 12.3918C178.512 11.3196 176.517 10.7509 174.475 10.7696ZM174.475 32.8284C172.909 32.847 171.371 32.4089 170.047 31.5791C168.714 30.7307 167.641 29.5373 166.933 28.1295C165.432 25.0248 165.432 21.4074 166.933 18.3028C167.641 16.8856 168.714 15.6829 170.047 14.8252C171.371 13.9768 172.909 13.5386 174.475 13.5479C176.042 13.5292 177.571 13.9768 178.885 14.8252C180.2 15.6923 181.272 16.8856 181.981 18.2935C183.482 21.3981 183.482 25.0155 181.981 28.1201C181.272 29.528 180.209 30.7213 178.885 31.5698C177.571 32.4088 176.032 32.847 174.475 32.8284ZM174.475 13.9395C172.984 13.9302 171.52 14.3497 170.261 15.1515C168.993 15.9719 167.968 17.1187 167.287 18.4706C165.842 21.4634 165.842 24.9409 167.287 27.9337C167.958 29.2856 168.993 30.423 170.261 31.2341C171.52 32.0266 172.984 32.4368 174.475 32.4275C175.958 32.4461 177.421 32.0266 178.671 31.2341C179.929 30.423 180.955 29.2762 181.626 27.9337C183.071 24.9409 183.071 21.4634 181.626 18.4706C180.946 17.128 179.929 15.9813 178.671 15.1515C177.421 14.3404 175.967 13.9208 174.475 13.9395Z" fill="#063565"/>
<path d="M208.738 12.224C210.472 13.3428 211.871 14.9091 212.794 16.7551C213.801 18.7409 214.304 20.9412 214.276 23.1602C214.304 25.3978 213.782 27.6074 212.747 29.5932C211.796 31.4579 210.351 33.0335 208.57 34.143C204.944 36.3433 200.385 36.3433 196.758 34.143C194.977 33.0335 193.532 31.4579 192.581 29.5932C191.556 27.6074 191.033 25.3978 191.061 23.1602V12.513C191.043 12.3732 191.043 12.2426 191.061 12.1028V1.96843C191.043 1.50226 191.201 1.05475 191.5 0.700464C191.789 0.374151 192.208 0.187687 192.646 0.206333C193.085 0.19701 193.513 0.374151 193.812 0.700464C194.119 1.04542 194.287 1.50226 194.269 1.96843V15.2354C195.22 13.809 196.497 12.6342 197.998 11.8138C199.518 10.9747 201.233 10.5458 202.967 10.5645C205.009 10.5365 207.023 11.1145 208.738 12.224ZM206.986 31.3833C208.281 30.5442 209.326 29.3695 210.016 27.9896C211.489 24.9409 211.489 21.3888 210.016 18.3401C209.326 16.9602 208.272 15.7948 206.967 14.965C205.671 14.1539 204.179 13.725 202.65 13.7437C200.552 13.7064 198.539 14.5268 197.056 16.0092C195.49 17.5569 194.53 19.6173 194.325 21.8083C194.343 21.8829 194.343 21.9575 194.325 22.032C194.306 22.405 194.306 22.7873 194.325 23.1602C194.297 24.829 194.679 26.4886 195.434 27.9803C196.124 29.3601 197.168 30.5349 198.464 31.374C199.741 32.2037 201.233 32.6419 202.762 32.6233C204.263 32.6233 205.727 32.1944 206.986 31.3833Z" fill="#063565"/>
<path d="M202.66 35.9983C200.534 36.0169 198.455 35.4389 196.646 34.3201C194.837 33.1734 193.374 31.5698 192.404 29.6585C191.36 27.6447 190.828 25.3978 190.856 23.1322V12.513C190.838 12.3639 190.838 12.224 190.856 12.0748V1.96844C190.838 1.45566 191.015 0.961525 191.341 0.569948C191.667 0.197018 192.143 -0.00809394 192.637 0.00122931C193.131 -0.00809394 193.616 0.197009 193.952 0.560616C194.297 0.942869 194.483 1.44632 194.464 1.9591V14.6108C195.378 13.3894 196.543 12.3732 197.886 11.6366C199.434 10.7882 201.177 10.35 202.949 10.3687C205.018 10.35 207.051 10.9374 208.794 12.0562C210.547 13.2029 211.973 14.7879 212.915 16.6619C213.931 18.685 214.444 20.9226 214.416 23.1882C214.444 25.4537 213.913 27.7006 212.868 29.7144C211.899 31.6257 210.435 33.2293 208.626 34.3761C206.827 35.4669 204.757 36.0263 202.66 35.9983ZM192.684 0.392804C192.301 0.374158 191.938 0.532659 191.686 0.82168C191.416 1.13867 191.276 1.53956 191.294 1.9591V12.1587C191.276 12.2799 191.276 12.3918 191.294 12.513V23.1509C191.267 25.3511 191.779 27.5328 192.796 29.4907C193.737 31.3273 195.154 32.8657 196.898 33.9658C200.469 36.1288 204.934 36.1288 208.505 33.9658C210.249 32.8657 211.666 31.3273 212.607 29.4907C213.614 27.5328 214.136 25.3511 214.108 23.1509C214.136 20.9599 213.633 18.7876 212.645 16.8297C211.74 15.021 210.361 13.4827 208.664 12.3732C206.995 11.301 205.056 10.7416 203.07 10.7509C201.364 10.7323 199.685 11.1518 198.194 11.9723C196.73 12.7834 195.481 13.9302 194.548 15.3286L194.185 15.8694V1.96844C194.203 1.54889 194.054 1.13867 193.774 0.830998C193.495 0.523331 193.094 0.364834 192.684 0.392804ZM202.66 32.8191C201.093 32.8377 199.564 32.3902 198.25 31.5418C196.926 30.684 195.863 29.4813 195.154 28.0735C194.39 26.5538 193.998 24.8663 194.026 23.1602C194.008 22.7779 194.008 22.3863 194.026 22.0041V21.9482C194.026 21.9482 194.026 21.8549 194.026 21.8083C194.231 19.5614 195.22 17.4637 196.823 15.8694C198.352 14.3497 200.422 13.5106 202.576 13.5479C204.142 13.5386 205.68 13.9674 207.004 14.8065C208.337 15.655 209.419 16.8483 210.127 18.2562C211.628 21.3608 211.628 24.9782 210.127 28.0829C209.419 29.5 208.337 30.7027 207.004 31.5604C205.708 32.3902 204.198 32.8284 202.66 32.8284V32.8191ZM194.455 22.0787V23.1602C194.427 24.8011 194.8 26.4233 195.537 27.8964C196.208 29.2483 197.233 30.3857 198.492 31.2155C199.741 32.0266 201.196 32.4461 202.688 32.4275C204.179 32.4461 205.643 32.0173 206.902 31.2155C208.179 30.395 209.204 29.2483 209.885 27.8964C211.33 24.9036 211.33 21.4261 209.885 18.4333C209.214 17.0907 208.179 15.9533 206.911 15.1422C205.652 14.3497 204.189 13.9302 202.697 13.9488C200.646 13.9115 198.669 14.7133 197.215 16.1584C195.686 17.6781 194.744 19.6919 194.539 21.8363C194.539 21.9202 194.502 22.0134 194.464 22.088H194.455V22.0787Z" fill="#063565"/>
<path d="M220.047 33.3785C218.929 31.7282 218.369 29.7704 218.444 27.7845V1.92181C218.425 1.46497 218.584 1.00814 218.901 0.672499C219.19 0.364832 219.6 0.187681 220.029 0.197004C220.458 0.178358 220.877 0.355509 221.176 0.672499C221.474 1.01746 221.632 1.46497 221.614 1.92181V27.7379C221.567 28.838 221.819 29.9382 222.341 30.9078C222.686 31.635 223.404 32.1012 224.206 32.1292H225.25C225.641 32.1198 226.014 32.2969 226.247 32.6046C226.508 32.9682 226.639 33.4064 226.62 33.854C226.639 34.3294 226.452 34.7863 226.098 35.1033C225.725 35.4296 225.231 35.5974 224.737 35.5787H224.196C222.527 35.5974 220.97 34.7676 220.047 33.3785Z" fill="#063565"/>
<path d="M224.746 35.7745H224.206C222.471 35.7932 220.849 34.9354 219.889 33.4997C218.742 31.8028 218.164 29.789 218.248 27.7379V1.92181C218.229 1.40903 218.416 0.9149 218.761 0.54197C219.087 0.187687 219.553 -0.00810332 220.029 0.00121993C220.523 -0.0174266 220.989 0.178363 221.325 0.54197C221.66 0.924223 221.837 1.41835 221.819 1.92181V27.7379C221.772 28.8007 222.015 29.8636 222.518 30.8052C222.826 31.4672 223.478 31.9054 224.206 31.9333H225.25C225.697 31.924 226.135 32.1292 226.406 32.4834C226.695 32.875 226.844 33.3598 226.825 33.854C226.844 34.3761 226.63 34.8888 226.238 35.2431C225.828 35.6067 225.296 35.7932 224.746 35.7745ZM220.029 0.392795C219.656 0.392795 219.292 0.532641 219.04 0.812338C218.761 1.11068 218.621 1.51158 218.64 1.92181V27.7379C218.556 29.6958 219.106 31.635 220.206 33.2573C221.101 34.5905 222.602 35.3829 224.206 35.3736H224.746C225.194 35.3923 225.632 35.2338 225.968 34.9448C226.275 34.6651 226.443 34.2642 226.424 33.8446C226.443 33.4437 226.322 33.0521 226.089 32.7258C225.884 32.4648 225.576 32.3156 225.24 32.3249H224.196C223.329 32.297 222.546 31.7935 222.164 31.0103C221.623 30.0034 221.362 28.8753 221.409 27.7379V1.92181C221.427 1.52091 221.297 1.12001 221.026 0.812338C220.775 0.532641 220.411 0.383471 220.029 0.392795Z" fill="#063565"/>
<path d="M230.406 5.37141C229.977 4.8866 229.744 4.25262 229.762 3.60932C229.734 2.95669 229.977 2.31339 230.433 1.83791C230.862 1.39039 231.45 1.14799 232.065 1.15731C232.662 1.15731 233.24 1.39972 233.65 1.83791C234.107 2.31339 234.349 2.95669 234.321 3.60932C234.331 4.26195 234.098 4.89593 233.65 5.37141C233.24 5.83758 232.643 6.10795 232.018 6.09863C231.403 6.10795 230.806 5.8469 230.406 5.37141ZM230.89 35.0846C230.583 34.7396 230.415 34.2828 230.433 33.8167V12.569C230.415 12.1028 230.583 11.646 230.89 11.301C231.189 10.9747 231.618 10.7975 232.056 10.8069C232.494 10.7882 232.913 10.9747 233.202 11.301C233.501 11.6553 233.659 12.1028 233.641 12.569V33.8073C233.659 34.2735 233.501 34.721 233.202 35.0753C232.913 35.4016 232.494 35.5881 232.056 35.5694C231.618 35.5788 231.189 35.4016 230.89 35.0753V35.0846Z" fill="#063565"/>
<path d="M232.056 35.7745C231.562 35.7839 231.077 35.5881 230.741 35.2151C230.396 34.8329 230.21 34.3294 230.228 33.8167V12.569C230.21 12.0562 230.396 11.5527 230.741 11.1705C231.077 10.8069 231.562 10.6018 232.056 10.6111C232.55 10.6018 233.025 10.8069 233.352 11.1798C233.678 11.5714 233.855 12.0655 233.836 12.5783V33.8167C233.855 34.3294 233.678 34.8236 233.352 35.2151C233.025 35.5881 232.55 35.7932 232.056 35.7745ZM232.056 11.0027C231.664 10.9933 231.291 11.1518 231.03 11.4409C230.75 11.7485 230.601 12.1587 230.62 12.5783V33.8167C230.601 34.2362 230.75 34.6464 231.03 34.9541C231.291 35.2431 231.664 35.4016 232.056 35.3923C232.438 35.4109 232.802 35.2524 233.053 34.9634C233.324 34.6464 233.464 34.2455 233.445 33.826V12.569C233.464 12.1587 233.324 11.7485 233.053 11.4315C232.802 11.1425 232.438 10.984 232.056 11.0027ZM232.056 6.29442C231.384 6.29442 230.741 6.01471 230.303 5.50194C229.846 4.98916 229.604 4.32721 229.604 3.63728C229.594 2.94736 229.855 2.27609 230.331 1.77263C230.797 1.28783 231.431 1.02678 232.102 1.0361C232.755 1.0361 233.38 1.29715 233.827 1.77263C234.303 2.27609 234.564 2.94736 234.554 3.63728C234.554 4.32721 234.303 4.99848 233.836 5.50194C233.37 6.02404 232.708 6.31307 232.009 6.2851H232.056V6.29442ZM232.056 1.36241C231.496 1.35309 230.946 1.57686 230.564 1.98708C230.144 2.42527 229.921 3.01264 229.949 3.61865C229.93 4.21534 230.144 4.8027 230.545 5.25022C230.909 5.67909 231.45 5.91217 232.009 5.90284C232.578 5.90284 233.119 5.66975 233.492 5.24088C233.902 4.80269 234.125 4.21533 234.107 3.60932C234.135 3.0033 233.911 2.41594 233.492 1.97775C233.128 1.56752 232.606 1.33445 232.056 1.32512V1.36241Z" fill="#063565"/>
<path d="M243.579 34.8888C242.097 34.3294 240.773 33.4064 239.738 32.2131C239.486 31.924 239.337 31.5511 239.319 31.1689C239.319 30.6374 239.57 30.134 239.99 29.8076C240.279 29.5559 240.652 29.4067 241.034 29.3974C241.519 29.3974 241.966 29.6398 242.246 30.0314C242.945 30.8985 243.859 31.5697 244.894 31.98C246.059 32.4461 247.299 32.6792 248.549 32.6605C250.087 32.7724 251.625 32.3902 252.93 31.5697C253.863 30.9171 254.422 29.8543 254.432 28.7168C254.432 27.626 253.881 26.6098 252.968 26.0038C251.56 25.1181 249.966 24.5587 248.306 24.3722C246.078 24.1018 243.962 23.2347 242.19 21.8549C240.904 20.7921 240.158 19.1978 240.167 17.5289C240.064 15.5431 240.95 13.6225 242.526 12.4105C244.241 11.1611 246.32 10.5272 248.437 10.6018C250.096 10.5645 251.737 10.9094 253.238 11.618C254.562 12.252 255.699 13.2123 256.539 14.415C256.734 14.732 256.856 15.0862 256.874 15.4592C256.874 15.9533 256.622 16.4195 256.203 16.6805C255.97 16.839 255.69 16.9229 255.41 16.9043C254.842 16.9043 254.31 16.6619 253.947 16.2237C252.595 14.5362 250.516 13.5945 248.353 13.6878C247.048 13.6225 245.761 13.9768 244.679 14.704C243.234 15.6829 242.861 17.6501 243.85 19.0952C244.055 19.3936 244.306 19.6546 244.596 19.8691C245.994 20.7175 247.57 21.2489 249.192 21.4354C252.166 21.9761 254.301 22.8618 255.578 24.0832C256.837 25.2579 257.536 26.9081 257.499 28.6329C257.518 29.9662 257.117 31.2714 256.352 32.3622C255.541 33.4903 254.432 34.3667 253.154 34.8982C251.681 35.5321 250.096 35.8491 248.493 35.8305C246.814 35.8305 245.146 35.5135 243.579 34.8888Z" fill="#063565"/>
<path d="M248.502 35.9983C246.777 36.0076 245.062 35.7 243.458 35.066C241.948 34.4879 240.605 33.5556 239.542 32.3343C239.263 32.008 239.095 31.5977 239.076 31.1689C239.076 30.5815 239.356 30.0221 239.813 29.6585C240.139 29.3788 240.559 29.211 240.987 29.2016C241.528 29.2016 242.032 29.472 242.349 29.9102C243.029 30.74 243.915 31.3833 244.922 31.7749C246.059 32.2317 247.281 32.4555 248.502 32.4368C249.994 32.5394 251.485 32.1758 252.763 31.3926C253.648 30.7866 254.189 29.7797 254.189 28.6982C254.189 27.6726 253.667 26.7123 252.809 26.1436C251.429 25.2766 249.863 24.7265 248.241 24.54C245.975 24.2603 243.831 23.3746 242.032 21.9761C240.698 20.876 239.934 19.2258 239.943 17.501C239.841 15.4499 240.754 13.4826 242.377 12.224C244.12 10.9467 246.246 10.2848 248.409 10.3594C250.096 10.3221 251.765 10.6763 253.294 11.3942C254.646 12.0562 255.811 13.0538 256.669 14.2938C256.893 14.6387 257.023 15.0396 257.042 15.4498C257.051 16.0186 256.762 16.5407 256.287 16.839C256.016 17.0255 255.69 17.1187 255.355 17.1001C254.73 17.1001 254.143 16.839 253.742 16.3542C252.418 14.7133 250.404 13.7996 248.297 13.8835C247.048 13.809 245.798 14.1353 244.745 14.8159C243.393 15.7389 243.039 17.5756 243.952 18.9368C244.148 19.2165 244.381 19.4682 244.661 19.664C246.041 20.4937 247.579 21.0065 249.173 21.193C252.175 21.743 254.357 22.6474 255.699 23.8967C256.986 25.0994 257.713 26.7962 257.685 28.5583C257.704 29.9289 257.284 31.2714 256.501 32.3902C255.672 33.537 254.534 34.4413 253.229 34.9914C251.737 35.6533 250.134 35.9983 248.502 35.9983ZM240.987 29.5653C240.642 29.5653 240.316 29.7051 240.055 29.9289C239.412 30.3764 239.253 31.2714 239.701 31.9147C239.747 31.98 239.794 32.0359 239.85 32.0919C240.866 33.2573 242.143 34.1523 243.579 34.7024C245.136 35.3177 246.796 35.6347 248.474 35.6347C250.04 35.644 251.588 35.327 253.024 34.7024C254.273 34.1802 255.345 33.3225 256.138 32.2317C256.874 31.1782 257.266 29.9195 257.247 28.6329C257.284 26.9641 256.604 25.3605 255.383 24.223C254.133 23.0296 252.017 22.1626 249.099 21.6218C247.448 21.426 245.854 20.876 244.437 20.0182C242.936 18.9274 242.61 16.8297 243.7 15.3286C243.924 15.021 244.204 14.7506 244.521 14.5362C245.64 13.7903 246.973 13.4174 248.315 13.4827C250.534 13.3894 252.669 14.359 254.068 16.0932C254.385 16.4847 254.87 16.7085 255.373 16.6992C255.616 16.7178 255.849 16.6432 256.044 16.5127C256.417 16.2889 256.65 15.888 256.641 15.4498C256.613 15.1142 256.511 14.7972 256.333 14.5175C255.513 13.3428 254.404 12.3918 253.117 11.7672C251.644 11.0772 250.031 10.7323 248.409 10.7696C246.348 10.695 244.316 11.3103 242.647 12.513C241.118 13.6971 240.27 15.5431 240.363 17.473C240.363 19.0859 241.081 20.6242 242.321 21.6498C244.073 23.0017 246.152 23.8501 248.343 24.1205C250.022 24.3163 251.635 24.885 253.061 25.7893C254.021 26.4326 254.599 27.5141 254.599 28.6702C254.59 29.8729 253.993 30.9917 253.014 31.6816C251.672 32.5207 250.096 32.9216 248.511 32.8097C247.234 32.8284 245.966 32.5953 244.782 32.1198C243.71 31.7003 242.768 31.0104 242.05 30.1153C241.808 29.7704 241.407 29.5653 240.987 29.5653Z" fill="#063565"/>
<path d="M277.88 11.8884C279.483 12.8114 280.788 14.1912 281.609 15.8507C282.541 17.79 282.998 19.925 282.942 22.0787V33.854C282.951 34.3015 282.793 34.7397 282.485 35.0753C282.196 35.3923 281.786 35.5788 281.357 35.5694C280.919 35.5788 280.49 35.4016 280.192 35.0753C279.884 34.7397 279.725 34.3015 279.735 33.854V22.0787C279.735 19.3936 279.045 17.3518 277.665 15.944C276.239 14.5175 274.271 13.753 272.258 13.8369C270.962 13.809 269.684 14.1073 268.528 14.6947C267.456 15.2354 266.561 16.0559 265.918 17.0721C265.284 18.0883 264.967 19.2537 264.985 20.4471V33.854C265.004 34.3108 264.846 34.7583 264.547 35.1033C264.249 35.4203 263.829 35.5974 263.401 35.5787C262.962 35.5881 262.543 35.4203 262.235 35.1033C261.918 34.7676 261.76 34.3108 261.778 33.854V1.96843C261.76 1.50226 261.927 1.04542 262.235 0.700464C262.533 0.374151 262.962 0.19701 263.401 0.206333C263.839 0.187687 264.258 0.374151 264.547 0.700464C264.846 1.05475 265.004 1.50226 264.985 1.96843V14.0887C265.89 12.9792 267.037 12.0841 268.323 11.4595C269.656 10.8255 271.111 10.5085 272.584 10.5272C274.439 10.4992 276.267 10.9747 277.88 11.8884Z" fill="#063565"/>
<path d="M281.32 35.7746C280.826 35.7839 280.341 35.5881 280.005 35.2151C279.66 34.8422 279.483 34.3574 279.492 33.854V22.0787C279.492 19.4589 278.821 17.417 277.488 16.0838C276.089 14.6947 274.188 13.9581 272.22 14.0327C270.971 14.0141 269.731 14.3031 268.612 14.8718C267.577 15.4032 266.701 16.1957 266.076 17.1747C265.461 18.1536 265.135 19.291 265.144 20.4471V33.854C265.163 34.3574 264.985 34.8515 264.65 35.2338C264.314 35.5974 263.848 35.7932 263.354 35.7746C262.86 35.7839 262.384 35.5881 262.039 35.2338C261.685 34.8609 261.499 34.3667 261.527 33.854V1.96844C261.508 1.45566 261.694 0.952201 262.039 0.569948C262.375 0.206341 262.86 0.00122417 263.354 0.0105474C263.848 0.00122417 264.323 0.206336 264.65 0.579266C264.976 0.970843 265.153 1.46497 265.135 1.97775V13.5852C266.002 12.6342 267.037 11.8697 268.193 11.3103C269.554 10.6764 271.036 10.35 272.537 10.378C274.439 10.35 276.313 10.8348 277.963 11.7672C279.576 12.7275 280.872 14.126 281.693 15.8135C282.644 17.7807 283.11 19.953 283.054 22.1346V33.9099C283.063 34.4134 282.877 34.8981 282.541 35.2618C282.224 35.5974 281.777 35.7839 281.32 35.7746ZM272.22 13.6411C274.29 13.5572 276.295 14.3404 277.768 15.8041C279.175 17.2399 279.893 19.347 279.893 22.0787V33.854C279.884 34.2549 280.024 34.6464 280.304 34.9448C280.565 35.2338 280.938 35.3923 281.329 35.383C281.702 35.383 282.066 35.2245 282.308 34.9448C282.578 34.6464 282.728 34.2549 282.718 33.854V22.0787C282.774 19.9623 282.327 17.8552 281.404 15.944C280.602 14.3217 279.343 12.9792 277.786 12.0655C276.192 11.1705 274.393 10.7043 272.565 10.7323C271.12 10.723 269.694 11.04 268.388 11.6646C267.12 12.2706 266.011 13.1563 265.116 14.2378L264.762 14.6667V1.96844C264.78 1.54889 264.641 1.14799 264.37 0.830998C264.118 0.541977 263.755 0.383476 263.373 0.402122C262.981 0.392799 262.608 0.551295 262.347 0.840316C262.067 1.14798 261.918 1.55821 261.937 1.97775V33.8633C261.918 34.2735 262.058 34.6744 262.338 34.9727C262.608 35.2524 262.981 35.4016 263.363 35.3923C263.736 35.4109 264.1 35.2618 264.361 34.9821C264.631 34.6744 264.762 34.2735 264.743 33.8726V20.4471C264.734 19.2165 265.079 18.0137 265.731 16.9695C266.393 15.9347 267.316 15.0862 268.416 14.5269C269.591 13.9208 270.896 13.6225 272.22 13.6411Z" fill="#063565"/>
<path d="M108.153 77.4894C105.653 75.9325 103.629 73.7162 102.31 71.0787C99.4986 65.3181 99.4986 58.5777 102.31 52.8171C103.638 50.207 105.662 47.9999 108.153 46.4521C113.328 43.3658 119.775 43.3658 124.949 46.4521C127.45 47.9999 129.474 50.1979 130.811 52.8171C133.622 58.5777 133.622 65.3181 130.811 71.0787C129.483 73.7162 127.459 75.9325 124.949 77.4894C119.775 80.5758 113.328 80.5758 108.153 77.4894ZM123.301 74.5771C125.316 73.295 126.955 71.4816 128.036 69.3478C130.334 64.6954 130.334 59.2279 128.036 54.5755C126.955 52.4416 125.316 50.6374 123.301 49.3461C119.152 46.791 113.914 46.791 109.765 49.3461C107.75 50.6374 106.111 52.4416 105.03 54.5755C102.731 59.2279 102.731 64.6954 105.03 69.3478C106.111 71.4816 107.75 73.2858 109.765 74.5771C113.914 77.1323 119.152 77.1323 123.301 74.5771Z" fill="#063565"/>
<path d="M116.56 79.9988C113.557 80.0355 110.608 79.2203 108.052 77.6543C105.525 76.0791 103.482 73.8536 102.136 71.1977C99.2879 65.3822 99.2879 58.5685 102.136 52.753C103.492 50.1154 105.534 47.9083 108.052 46.3422C113.291 43.2193 119.812 43.2193 125.05 46.3422C127.578 47.8991 129.629 50.1154 130.985 52.753C133.833 58.5685 133.833 65.3822 130.985 71.1977C129.638 73.8536 127.587 76.0882 125.05 77.6543C122.495 79.2203 119.555 80.0263 116.56 79.9988ZM116.56 44.364C113.63 44.3274 110.754 45.115 108.254 46.6444C105.79 48.1739 103.794 50.3444 102.475 52.927C99.6909 58.6326 99.6909 65.2998 102.475 71.0054C103.785 73.5972 105.781 75.7768 108.245 77.3154C113.355 80.3651 119.729 80.3651 124.839 77.3154C127.312 75.786 129.318 73.5972 130.637 71.0054C133.421 65.2998 133.421 58.6326 130.637 52.927C129.309 50.3444 127.312 48.1739 124.839 46.6444C122.348 45.1242 119.482 44.3274 116.56 44.3549V44.364ZM116.56 76.711C114.124 76.7384 111.725 76.0699 109.664 74.7694C107.613 73.4598 105.955 71.6282 104.856 69.4668C102.53 64.7595 102.53 59.2279 104.856 54.5205C105.955 52.3592 107.613 50.5275 109.664 49.2179C113.877 46.6261 119.189 46.6261 123.402 49.2179C125.453 50.5275 127.111 52.3592 128.21 54.5205C130.536 59.2279 130.536 64.7595 128.21 69.4668C127.111 71.6282 125.453 73.4598 123.402 74.7694C121.359 76.0607 118.978 76.7384 116.56 76.711ZM116.56 47.661C114.198 47.6335 111.871 48.2838 109.875 49.5476C107.888 50.8206 106.276 52.5973 105.204 54.7037C102.933 59.3012 102.933 64.6954 105.204 69.2928C106.276 71.3992 107.888 73.1759 109.875 74.4489C113.959 76.9583 119.116 76.9583 123.2 74.4489C125.187 73.1759 126.799 71.3992 127.871 69.2928C130.142 64.6954 130.142 59.3012 127.871 54.7037C126.799 52.5973 125.187 50.8206 123.2 49.5476C121.213 48.2929 118.914 47.6335 116.56 47.6519V47.661Z" fill="#063565"/>
<path d="M153.697 56.0958C155.272 57.0024 156.545 58.3578 157.36 59.988C158.276 61.8929 158.725 63.9902 158.67 66.1057V77.6726C158.679 78.1122 158.524 78.5426 158.221 78.8723C157.937 79.1837 157.534 79.3669 157.113 79.3577C156.674 79.376 156.252 79.1929 155.959 78.8723C155.657 78.5426 155.501 78.1122 155.51 77.6726V66.1057C155.51 63.4681 154.833 61.4625 153.477 60.0796C152.076 58.6784 150.144 57.9274 148.166 58.0098C146.893 57.9824 145.638 58.2754 144.502 58.8524C143.449 59.3836 142.57 60.1895 141.938 61.1877C141.315 62.186 141.004 63.3308 141.022 64.503V77.6726C141.04 78.1214 140.885 78.561 140.592 78.8998C140.299 79.2112 139.886 79.3852 139.465 79.3669C139.035 79.376 138.623 79.2112 138.32 78.8998C138.009 78.5701 137.853 78.1214 137.872 77.6726V56.7552C137.853 56.2972 138.018 55.8485 138.32 55.5096C138.613 55.1891 139.035 55.0151 139.465 55.0242C139.896 55.0059 140.308 55.1891 140.592 55.5096C140.885 55.8576 141.04 56.2972 141.022 56.7552V58.2663C141.91 57.1764 143.037 56.2972 144.301 55.6836C145.61 55.0609 147.039 54.7495 148.486 54.7678C150.309 54.7403 152.113 55.1982 153.697 56.0958Z" fill="#063565"/>
<path d="M157.122 79.55C156.637 79.5592 156.161 79.3669 155.831 79.0005C155.492 78.6342 155.318 78.158 155.327 77.6634V66.1057C155.327 63.5323 154.668 61.5266 153.358 60.217C151.985 58.8524 150.116 58.1289 148.184 58.2021C146.957 58.1838 145.739 58.4677 144.649 59.0264C143.632 59.5484 142.771 60.3269 142.158 61.2885C141.553 62.2501 141.233 63.3674 141.242 64.503V77.6726C141.26 78.1671 141.086 78.6525 140.757 79.028C140.427 79.3852 139.969 79.5775 139.484 79.5592C138.998 79.5684 138.531 79.376 138.192 79.028C137.853 78.6617 137.67 78.1763 137.688 77.6726V56.7552C137.67 56.2515 137.853 55.7569 138.192 55.3814C138.522 55.0242 138.998 54.8228 139.484 54.8319C139.969 54.8228 140.436 55.0242 140.757 55.3906C141.077 55.7752 141.251 56.2606 141.233 56.7643V57.7534C142.084 56.8193 143.101 56.0683 144.237 55.5188C145.574 54.896 147.03 54.5755 148.504 54.603C150.373 54.5755 152.213 55.0517 153.834 55.9675C155.419 56.9108 156.692 58.2937 157.498 59.9422C158.432 61.8746 158.89 64.0085 158.835 66.1515V77.7184C158.844 78.2129 158.67 78.6892 158.331 79.0555C158.011 79.3852 157.58 79.5592 157.122 79.55ZM148.184 57.8083C150.235 57.7168 152.223 58.4861 153.679 59.9331C155.062 61.3434 155.767 63.4223 155.767 66.0966V77.6634C155.758 78.0572 155.895 78.4419 156.17 78.735C156.426 79.0189 156.793 79.1746 157.177 79.1654C157.544 79.1654 157.901 79.0097 158.139 78.735C158.414 78.4419 158.551 78.0572 158.542 77.6634V66.1057C158.597 64.0268 158.148 61.9571 157.251 60.0796C156.463 58.4861 155.227 57.1673 153.697 56.2698C152.131 55.3906 150.364 54.9327 148.568 54.9601C147.149 54.951 145.748 55.2624 144.466 55.876C143.22 56.4712 142.13 57.3413 141.251 58.4036L140.903 58.8249V56.7735C140.921 56.3705 140.784 55.9675 140.518 55.6562C140.271 55.3722 139.914 55.2257 139.538 55.2349C139.154 55.2257 138.787 55.3814 138.531 55.6653C138.256 55.9675 138.11 56.3705 138.128 56.7826V77.6909C138.11 78.0939 138.247 78.4877 138.522 78.7807C138.787 79.0555 139.154 79.202 139.529 79.1929C139.905 79.2112 140.262 79.0647 140.518 78.7899C140.784 78.4877 140.912 78.0939 140.894 77.7001V64.503C140.885 63.2941 141.224 62.1127 141.865 61.087C142.515 60.0613 143.422 59.2279 144.502 58.6784C145.629 58.1014 146.874 57.8083 148.138 57.8083H148.184Z" fill="#063565"/>
<path d="M165.099 77.2055C164 75.5937 163.441 73.6613 163.515 71.7106V46.3056C163.496 45.8568 163.652 45.4081 163.964 45.0784C164.247 44.7762 164.65 44.6021 165.072 44.6113C165.493 44.593 165.905 44.767 166.198 45.0784C166.5 45.4172 166.647 45.8568 166.629 46.3056V71.6648C166.583 72.7455 166.83 73.8261 167.343 74.7786C167.682 75.4929 168.387 75.9509 169.175 75.9783H170.2C170.585 75.9692 170.951 76.1432 171.18 76.4454C171.437 76.8026 171.565 77.233 171.547 77.6726C171.565 78.1397 171.382 78.5884 171.034 78.8998C170.667 79.2204 170.191 79.3852 169.706 79.3669H169.175C167.535 79.3852 166.006 78.5701 165.099 77.2055Z" fill="#063565"/>
<path d="M169.715 79.55H169.184C167.48 79.5684 165.887 78.7258 164.943 77.3154C163.808 75.6486 163.24 73.6704 163.322 71.6556V46.3056C163.304 45.8019 163.487 45.3165 163.826 44.9502C164.147 44.6021 164.605 44.4098 165.072 44.419C165.557 44.4007 166.015 44.593 166.345 44.9502C166.674 45.3256 166.848 45.811 166.83 46.3056V71.6648C166.784 72.7088 167.022 73.7529 167.517 74.6778C167.819 75.3281 168.46 75.7585 169.175 75.786H170.2C170.64 75.7769 171.07 75.9783 171.336 76.3263C171.62 76.711 171.766 77.1872 171.748 77.6726C171.766 78.1855 171.556 78.6892 171.171 79.0372C170.768 79.3852 170.246 79.5684 169.715 79.55ZM165.081 44.8036C164.715 44.8036 164.357 44.941 164.11 45.2158C163.835 45.5088 163.698 45.9026 163.716 46.3056V71.6648C163.634 73.588 164.174 75.4929 165.255 77.0865C166.125 78.3961 167.599 79.1746 169.175 79.1654H169.706C170.145 79.1837 170.576 79.0372 170.905 78.7533C171.208 78.4785 171.373 78.0847 171.354 77.6726C171.373 77.2788 171.253 76.8941 171.025 76.5736C170.823 76.3172 170.521 76.1706 170.191 76.1798H169.165C168.314 76.1523 167.544 75.6578 167.169 74.8885C166.638 73.8994 166.381 72.7912 166.427 71.6739V46.3056C166.445 45.9118 166.317 45.518 166.052 45.2158C165.804 44.9502 165.447 44.8036 165.081 44.8128V44.8036Z" fill="#063565"/>
<path d="M175.274 49.685C174.853 49.2088 174.624 48.586 174.642 47.9541C174.615 47.313 174.853 46.6811 175.301 46.214C175.723 45.7744 176.3 45.5363 176.904 45.5455C177.49 45.5455 178.058 45.7836 178.461 46.214C178.91 46.6811 179.148 47.313 179.12 47.9541C179.13 48.5951 178.901 49.2179 178.461 49.685C178.058 50.1429 177.472 50.4085 176.858 50.3993C176.254 50.4085 175.668 50.1521 175.274 49.685ZM175.741 78.8723C175.439 78.5335 175.274 78.0847 175.292 77.6268V56.7552C175.274 56.2973 175.439 55.8485 175.741 55.5096C176.034 55.1891 176.455 55.0151 176.886 55.0242C177.316 55.0059 177.728 55.1891 178.012 55.5096C178.305 55.8576 178.461 56.2973 178.443 56.7552V77.6177C178.461 78.0756 178.305 78.5152 178.012 78.8632C177.728 79.1837 177.316 79.3669 176.886 79.3486C176.455 79.3669 176.034 79.1929 175.741 78.8723Z" fill="#063565"/>
<path d="M176.886 79.55C176.4 79.5592 175.924 79.3669 175.595 79.0005C175.256 78.6251 175.073 78.1305 175.091 77.6268V56.7552C175.073 56.2515 175.256 55.7569 175.595 55.3814C175.924 55.0242 176.4 54.8228 176.886 54.8319C177.371 54.7953 177.857 54.9876 178.186 55.3448C178.507 55.7294 178.681 56.2148 178.663 56.7185V77.581C178.681 78.0847 178.507 78.5701 178.186 78.9548C177.866 79.3486 177.39 79.5684 176.886 79.55ZM176.886 55.2166C176.501 55.2074 176.135 55.3631 175.878 55.647C175.604 55.9492 175.457 56.3522 175.475 56.7643V77.6268C175.457 78.0389 175.604 78.4419 175.878 78.7441C176.135 79.028 176.501 79.1837 176.886 79.1745C177.261 79.1929 177.618 79.0372 177.866 78.7533C178.131 78.4419 178.269 78.0481 178.25 77.636V56.7552C178.269 56.343 178.131 55.9492 177.866 55.6379C177.618 55.3539 177.261 55.1982 176.886 55.2166ZM176.886 50.5916C176.226 50.5916 175.595 50.3169 175.164 49.8132C174.715 49.3095 174.477 48.6593 174.477 47.9816C174.468 47.3038 174.725 46.6444 175.192 46.1499C175.649 45.6737 176.272 45.4172 176.932 45.4264C177.573 45.4264 178.186 45.6828 178.626 46.1499C179.093 46.6444 179.349 47.3038 179.34 47.9816C179.34 48.6593 179.093 49.3187 178.635 49.8132C178.186 50.3261 177.527 50.61 176.849 50.5916H176.886ZM176.886 45.7469C176.336 45.7378 175.796 45.9576 175.421 46.3605C175.008 46.791 174.789 47.3679 174.816 47.9632C174.798 48.5494 175.008 49.1263 175.402 49.5659C175.759 49.9872 176.281 50.2162 176.831 50.207C177.39 50.207 177.921 49.978 178.287 49.5568C178.69 49.1263 178.91 48.5494 178.891 47.9541C178.919 47.3588 178.699 46.7818 178.287 46.3514C177.921 45.9667 177.417 45.7469 176.886 45.7469Z" fill="#063565"/>
<path d="M201.082 56.0958C202.657 57.0024 203.939 58.3578 204.745 59.988C205.661 61.8929 206.11 63.9902 206.055 66.1057V77.6726C206.064 78.1122 205.908 78.5426 205.606 78.8723C205.322 79.1837 204.919 79.3669 204.498 79.3577C204.068 79.3669 203.646 79.1929 203.353 78.8723C203.051 78.5426 202.895 78.1122 202.904 77.6726V66.1057C202.904 63.4681 202.227 61.4625 200.871 60.0796C199.47 58.6784 197.538 57.9274 195.559 58.0098C194.286 57.9824 193.032 58.2754 191.896 58.8524C190.852 59.3836 189.964 60.1895 189.332 61.1877C188.709 62.186 188.398 63.3308 188.416 64.503V77.6726C188.434 78.1214 188.288 78.561 187.986 78.8998C187.693 79.2112 187.28 79.3852 186.859 79.3669C186.429 79.376 186.017 79.2112 185.714 78.8998C185.403 78.5701 185.247 78.1214 185.266 77.6726V56.7552C185.247 56.2972 185.412 55.8485 185.714 55.5096C186.007 55.1891 186.429 55.0151 186.859 55.0242C187.29 55.0059 187.702 55.1891 187.986 55.5096C188.279 55.8576 188.434 56.2972 188.416 56.7552V58.2663C189.304 57.1764 190.431 56.2972 191.695 55.6836C193.004 55.0609 194.433 54.7495 195.88 54.7678C197.703 54.7403 199.498 55.1982 201.082 56.0958Z" fill="#063565"/>
<path d="M204.452 79.55C203.967 79.5592 203.491 79.3669 203.161 79.0005C202.822 78.6342 202.648 78.158 202.657 77.6634V66.1057C202.657 63.5323 201.998 61.5266 200.679 60.217C199.305 58.8524 197.437 58.1289 195.505 58.2021C194.277 58.1838 193.059 58.4677 191.96 59.0264C190.944 59.5484 190.083 60.3269 189.469 61.2885C188.865 62.2501 188.544 63.3674 188.553 64.503V77.6726C188.572 78.1671 188.398 78.6525 188.068 79.028C187.738 79.3852 187.28 79.5775 186.795 79.5592C186.31 79.5684 185.843 79.376 185.504 79.028C185.165 78.6617 184.982 78.1763 185 77.6726V56.7552C184.973 56.2331 185.165 55.7294 185.513 55.3448C185.843 54.9876 186.319 54.7861 186.804 54.7953C187.29 54.777 187.757 54.9876 188.077 55.3539C188.398 55.7386 188.572 56.224 188.553 56.7277V57.7168C189.405 56.7826 190.422 56.0316 191.557 55.4821C192.894 54.8594 194.351 54.5388 195.825 54.5663C197.693 54.5388 199.534 55.0151 201.155 55.9309C202.74 56.8742 204.013 58.248 204.818 59.9056C205.753 61.838 206.211 63.9719 206.156 66.1149V77.6818C206.165 78.1763 205.982 78.6525 205.652 79.0097C205.34 79.3485 204.91 79.5409 204.452 79.55ZM195.514 57.8083C197.547 57.7259 199.516 58.4952 200.963 59.9331C202.346 61.3434 203.051 63.4132 203.051 66.0966V77.6634C203.042 78.0572 203.179 78.4419 203.454 78.735C203.71 79.0189 204.077 79.1746 204.461 79.1654C204.828 79.1654 205.185 79.0097 205.423 78.735C205.689 78.4419 205.835 78.0572 205.817 77.6634V66.1057C205.872 64.0268 205.432 61.9571 204.525 60.0796C203.738 58.4861 202.501 57.1673 200.972 56.2698C199.406 55.3906 197.638 54.9327 195.843 54.9601C194.424 54.951 193.023 55.2624 191.74 55.876C190.495 56.4712 189.405 57.3413 188.526 58.4036L188.178 58.8249V56.7735C188.196 56.3613 188.059 55.9675 187.793 55.6562C187.546 55.3722 187.189 55.2166 186.813 55.2349C186.429 55.2257 186.062 55.3814 185.806 55.6653C185.531 55.9675 185.385 56.3705 185.403 56.7826V77.6909C185.385 78.0939 185.522 78.4877 185.797 78.7807C186.062 79.0555 186.429 79.202 186.804 79.1929C187.171 79.2112 187.537 79.0647 187.784 78.7899C188.05 78.4877 188.178 78.0939 188.16 77.7001V64.503C188.15 63.2941 188.489 62.1127 189.13 61.087C189.781 60.0704 190.687 59.237 191.768 58.6875C192.922 58.0922 194.213 57.79 195.514 57.8083Z" fill="#063565"/>
<path d="M226.643 56.3339C228.236 57.3779 229.509 58.8524 230.306 60.5833C231.194 62.5249 231.634 64.6313 231.597 66.7651C231.616 67.1864 231.469 67.5894 231.185 67.9007C230.901 68.1846 230.517 68.3312 230.123 68.322H213.519C213.647 70.5475 214.581 72.6539 216.147 74.2383C217.668 75.7494 219.747 76.5736 221.89 76.5095C222.906 76.5095 223.914 76.3172 224.866 75.9509C225.754 75.6486 226.569 75.1724 227.265 74.5496C227.568 74.2749 227.962 74.1101 228.374 74.1009C228.712 74.1101 229.033 74.2383 229.289 74.4581C229.619 74.7694 229.811 75.1999 229.821 75.6578C229.821 76.0516 229.656 76.4179 229.372 76.6835C224.967 80.8597 218.007 80.6674 213.839 76.2622C213.089 75.4655 212.457 74.568 211.971 73.588C210.973 71.6007 210.478 69.4027 210.515 67.1773C210.478 64.961 210.945 62.7721 211.889 60.7665C212.731 58.9715 214.05 57.4512 215.708 56.3613C217.365 55.299 219.298 54.7495 221.267 54.7861C223.172 54.7587 225.049 55.2898 226.643 56.3339ZM216.102 59.9972C214.682 61.4991 213.803 63.4315 213.601 65.4921H228.612C228.493 63.4498 227.678 61.5174 226.313 59.9972C225.013 58.6051 223.172 57.845 221.267 57.9091C219.344 57.8358 217.466 58.5593 216.102 59.9239V59.9972Z" fill="#063565"/>
<path d="M221.881 79.779C219.783 79.8156 217.714 79.257 215.909 78.1763C214.151 77.0956 212.722 75.5387 211.797 73.6979C210.79 71.6923 210.286 69.4668 210.323 67.223C210.286 64.9793 210.763 62.7446 211.715 60.7115C212.576 58.889 213.913 57.3413 215.598 56.2331C217.274 55.1525 219.234 54.5938 221.23 54.6121C223.181 54.5755 225.086 55.125 226.725 56.1782C228.319 57.2589 229.592 58.7517 230.389 60.5101C231.286 62.4791 231.735 64.6129 231.698 66.7743C231.717 67.2414 231.552 67.6993 231.231 68.0473C230.911 68.3678 230.471 68.551 230.022 68.5327H213.73C213.895 70.6391 214.792 72.6172 216.276 74.1192C217.769 75.5937 219.793 76.3905 221.881 76.3355C222.87 76.3355 223.859 76.1432 224.784 75.7952C225.645 75.5021 226.441 75.035 227.119 74.4306C227.733 73.8078 228.713 73.7712 229.381 74.3298C229.766 74.6779 229.986 75.1724 229.986 75.6853C229.986 76.1249 229.793 76.5462 229.473 76.8484C227.348 78.6709 224.665 79.7149 221.871 79.7973V79.779H221.881ZM221.23 54.9968C219.289 54.9601 217.375 55.5005 215.735 56.5445C214.151 57.616 212.878 59.0997 212.072 60.8397C211.147 62.8271 210.68 64.9976 210.717 67.1864C210.68 69.3661 211.175 71.5274 212.155 73.4781C213.052 75.264 214.426 76.7659 216.12 77.81C220.315 80.2003 225.571 79.6874 229.216 76.5187C229.473 76.2805 229.61 75.9509 229.601 75.6028C229.601 75.1999 229.427 74.8152 229.125 74.5405C228.603 74.11 227.843 74.1558 227.376 74.6412C226.661 75.2823 225.828 75.7677 224.921 76.0791C223.95 76.4454 222.916 76.6377 221.881 76.6469C219.683 76.7018 217.558 75.8684 216.001 74.3207C214.408 72.6997 213.455 70.5566 213.318 68.2854V68.0748H230.105C230.444 68.0839 230.782 67.9557 231.021 67.7084C231.268 67.4337 231.396 67.0765 231.378 66.7102C231.414 64.6038 230.984 62.5249 230.105 60.6108C229.326 58.9165 228.09 57.4787 226.542 56.4438C224.958 55.4455 223.108 54.9418 221.23 54.9968ZM228.786 65.6753H213.373V65.4555C213.583 63.3491 214.481 61.3709 215.928 59.8232C217.32 58.4037 219.243 57.616 221.23 57.671C223.19 57.616 225.077 58.3945 226.414 59.8232C227.806 61.3801 228.639 63.3674 228.758 65.4555L228.786 65.6753ZM213.785 65.2906H228.356C228.209 63.3582 227.421 61.5358 226.13 60.0979C224.857 58.7608 223.071 58.0282 221.23 58.0923C219.344 58.0373 217.521 58.7791 216.203 60.1254C214.884 61.5449 214.05 63.3583 213.821 65.2815H213.785V65.2906Z" fill="#063565"/>
<path d="M11.0746 76.8624C11.6098 76.4746 12.1295 76.0868 12.626 75.7455C14.9724 74.1476 17.3305 72.4217 19.6343 70.6104C26.6154 65.1147 32.2158 59.6229 36.7497 53.8169C41.4697 47.7704 44.5414 41.9839 46.1316 36.1313C46.3565 35.1966 46.1742 34.2115 45.6313 33.4164C44.9525 32.3382 43.8666 31.5781 42.6216 31.3143C42.3191 31.2562 42.0127 31.229 41.7024 31.2251C39.3327 31.2251 37.824 32.9549 37.1957 34.739C34.3761 42.6626 30.5016 49.0387 24.6413 55.4613C20.4953 60.0107 14.1928 64.2266 8.63119 67.946C5.73013 69.8852 2.98809 71.7197 1.07215 73.2788C0.362404 73.8722 -0.0293142 74.7603 0.00171315 75.6834C0.0172268 76.9594 0.579597 78.1695 1.55308 78.9995C2.67006 79.8449 4.09732 80.1746 5.47416 79.9031C7.32028 79.6161 9.31379 78.154 11.0746 76.8624Z" fill="#FE9802"/>
<path d="M81.4562 26.1289C80.3004 28.2349 78.082 29.5341 75.6812 29.5147C74.7039 29.507 73.7343 29.2898 72.85 28.8709C74.4401 34.1068 75.177 39.6141 74.8319 44.2372C74.3238 50.9779 72.2178 56.9119 68.5721 61.8762C64.7364 67.1005 60.1753 70.0869 54.222 71.2775L53.8341 71.3473C53.392 71.4172 52.9692 71.4714 52.5426 71.5219C51.9027 71.5956 51.2627 71.6499 50.6228 71.6848C49.1878 71.7895 47.745 71.7585 46.3178 71.5956C44.5531 71.421 42.8117 71.0836 41.109 70.5872C41.2021 70.7927 41.2836 71.0022 41.3534 71.2194C41.8265 72.7009 41.6753 74.3104 40.9345 75.6756C40.2791 76.8624 39.2668 77.8165 38.0373 78.3905C48.35 81.4933 60.0784 80.0777 68.0059 74.4229C77.4149 67.7133 83.1898 56.3379 83.8492 43.2094C84.078 37.419 83.2674 31.6324 81.4562 26.1289Z" fill="#063565"/>
<path d="M47.2835 0H47.2175C46.151 0.0232705 45.1465 0.484802 44.4328 1.276C43.5912 2.11762 43.1297 3.26175 43.1491 4.44854C43.3236 7.00054 45.7282 8.19897 48.032 8.25327C52.6202 8.36574 58.0849 10.1925 61.9516 12.9384C63.9335 14.2958 65.7176 15.917 67.2612 17.7593C68.9755 19.8808 70.3717 22.2388 71.4111 24.7598C72.3923 26.9744 74.8978 28.0759 77.1938 27.304C78.4 26.8929 79.3812 26.0048 79.9087 24.8451C80.3315 23.9725 80.3664 22.9641 80.0057 22.0643C74.3471 8.80788 61.812 0.352936 47.2835 0Z" fill="#063565"/>
<path d="M22.2173 28.2698C25.064 29.569 27.3329 27.5174 28.4227 26.1754C29.0006 25.4424 29.6406 24.7598 30.3426 24.1431C31.8939 22.8322 33.4065 22.169 34.7407 22.1768C35.687 22.1768 36.5946 22.5452 37.2733 23.2046C38.4795 24.3332 39.0263 26.1289 38.8634 28.39C38.8208 28.9446 38.7432 29.4992 38.6385 30.0461C39.9649 29.3325 41.493 29.1036 42.9707 29.3906C44.7548 29.7474 46.31 30.8218 47.2796 32.3615C48.3074 27.3196 48.3345 20.063 41.7994 15.9364C34.1279 11.0961 25.1028 15.7658 20.154 22.8788C19.6692 23.6196 19.5451 24.5426 19.8127 25.3881C20.1695 26.6447 21.0421 27.6958 22.2173 28.2698Z" fill="#FE9802"/>
<path d="M17.6912 59.142C19.6536 57.6255 21.492 55.9578 23.1869 54.1466C23.7842 53.4911 24.3504 52.8395 24.9011 52.1841C24.7887 51.7613 24.6839 51.3502 24.5986 50.9663C22.8882 43.5507 23.4041 36.3795 26.0142 30.3059C24.5017 30.8256 22.8495 30.7364 21.4028 30.0616C19.8127 29.2976 18.6026 27.9207 18.0402 26.2491C13.4133 35.7978 14.282 46.2036 15.9963 53.6113C16.4307 55.4924 16.9969 57.3385 17.6912 59.142Z" fill="#FE9802"/>
<path d="M37.1647 69.1987C34.57 67.88 32.2973 66.0184 30.4938 63.734C28.477 65.712 26.3012 67.6745 23.9664 69.6214C26.5223 72.5458 29.6212 74.9426 33.0924 76.684C35.144 77.7079 38.1072 76.7538 39.1931 74.7448C39.6857 73.8489 39.7865 72.7901 39.4724 71.8166C39.0884 70.6686 38.2545 69.7262 37.1647 69.1987Z" fill="#FE9802"/>
</svg>
