<svg width="47" height="40" viewBox="0 0 47 40" fill="none" xmlns="http://www.w3.org/2000/svg">
<path d="M37.8873 3.34065C37.8873 4.80005 37.046 6.06683 35.8229 6.68013C34.7098 6.68131 33.5966 6.68131 32.4846 6.68013C32.4835 6.68131 32.4835 6.68013 32.4835 6.68013C31.8761 6.68131 31.271 6.68131 30.6648 6.68013C26.907 6.68249 23.1504 6.68249 19.3938 6.68249C20.2257 5.81394 20.7386 4.63579 20.7386 3.34065C20.7386 2.04552 20.2257 0.869728 19.395 0.0011817H23.3572C25.7939 0.0011817 28.2305 0.0011817 30.6672 0H35.8194C37.0448 0.6133 37.8873 1.88008 37.8873 3.34065Z" fill="#063565"/>
<path d="M43.862 6.61041C43.5418 6.65886 43.2144 6.67895 42.8906 6.67895C41.1406 6.67895 39.3917 6.67895 37.6416 6.67895C38.4723 5.8104 38.984 4.63343 38.984 3.33947C38.984 2.04552 38.4711 0.869728 37.6404 0.0011817C39.4271 0 41.2138 0.0011817 43.0017 0.00236339C44.8475 0.00472678 46.1309 0.942993 46.5409 2.55837C47.0112 4.41127 45.7551 6.31853 43.862 6.61041Z" fill="#063565"/>
<path d="M43.8644 39.9271C43.5028 39.9827 43.1305 39.9969 42.7642 39.9969C36.942 40.0004 31.1221 39.9992 25.3011 39.9992H20.1466C18.9223 39.3871 18.0798 38.1191 18.0798 36.6598C18.0798 35.2004 18.9223 33.9324 20.1466 33.3191C21.2573 33.3179 22.3693 33.3179 23.4801 33.3191C24.0875 33.3179 24.6937 33.3179 25.3011 33.3179C31.1576 33.3179 37.0129 33.3191 42.8682 33.3191C44.831 33.3191 46.119 34.2196 46.5397 35.8739C47.0112 37.7268 45.7574 39.6364 43.8644 39.9271Z" fill="#063565"/>
<path d="M16.9832 36.6598C16.9832 37.9537 17.496 39.1307 18.3267 39.9992C13.4404 40.0004 8.5553 40.0004 3.67017 39.998C1.83263 39.9969 0.563486 39.107 0.122714 37.5366C-0.410231 35.6329 0.849457 33.6748 2.8028 33.3853C3.12304 33.338 3.45037 33.3215 3.77415 33.3215C8.62502 33.3203 13.4759 33.3191 18.3267 33.3191C17.496 34.1876 16.9832 35.3658 16.9832 36.6598Z" fill="#063565"/>
<path d="M34.7972 19.6966C34.7972 21.351 33.7148 22.7584 32.2199 23.2476C31.4506 23.2476 30.6802 23.2476 29.9109 23.2488C29.2054 23.2488 28.4988 23.25 27.7933 23.25C26.3741 23.2512 24.956 23.2488 23.5368 23.2417C21.3731 23.2311 19.9149 21.7492 20 19.6978C20.0614 18.2278 21.2065 16.9055 22.6565 16.6502C22.9743 16.5947 23.3028 16.5687 23.6266 16.5687C24.8792 16.5675 26.1318 16.5675 27.3844 16.5663C27.9327 16.5663 28.481 16.5663 29.0293 16.5651C30.3847 16.5651 31.739 16.564 33.0944 16.564C34.1189 17.2316 34.7972 18.3861 34.7972 19.6966Z" fill="#063565"/>
<path d="M43.9636 23.1578C43.5819 23.2252 43.1872 23.2417 42.7985 23.2429C39.9777 23.2476 37.157 23.2465 34.3363 23.2465C35.2935 22.3625 35.8938 21.0981 35.8938 19.6966C35.8938 18.5019 35.4589 17.4077 34.7381 16.564C37.4986 16.564 40.2578 16.5651 43.0183 16.5675C45.0283 16.5699 46.405 17.7433 46.613 19.5938C46.7997 21.2565 45.6097 22.8695 43.9636 23.1578Z" fill="#063565"/>
<path d="M19.6408 3.34065C19.6408 4.80241 18.7982 6.06919 17.5728 6.68249H12.4194C9.52429 6.68131 6.62795 6.68131 3.73279 6.68131C1.83972 6.68013 0.56585 5.80567 0.122714 4.21629C-0.409049 2.31022 0.850639 0.354509 2.80635 0.0685384C3.16913 0.015362 3.54018 0.00354509 3.90769 0.00354509C6.74494 0.00354509 9.58101 0.0011817 12.4183 0.00354509C13.0245 0.00236339 13.6307 0.00236339 14.2381 0.00236339H17.5752C18.7994 0.615664 19.6408 1.88244 19.6408 3.34184V3.34065Z" fill="#063565"/>
</svg>
