<svg width="20" height="55" viewBox="0 0 20 55" fill="none" xmlns="http://www.w3.org/2000/svg">
<path d="M7.79446 2.767C7.74384 2.58608 7.71715 2.39541 7.71715 2.19941H7.86165C7.82852 2.38388 7.80735 2.57367 7.79446 2.767Z" fill="#FE9802"/>
<path d="M12.2554 2.53464C12.2462 2.42113 12.2343 2.30938 12.2195 2.19941H12.2821C12.2821 2.31293 12.2729 2.42556 12.2554 2.53464Z" fill="#FE9802"/>
<path d="M6.9146 52.5681C5.54695 51.252 4.18022 49.9341 2.81349 48.6171C1.79281 47.6327 -0.141776 46.4213 0.00824243 44.8497C0.15642 43.3084 1.94191 42.3719 3.34638 43.2046C4.21151 43.7172 4.92939 44.644 5.64359 45.3322C6.33294 45.9973 7.11064 46.6323 7.69782 47.3835C7.70427 47.3808 7.71071 47.3782 7.71715 47.3746V41.4948C8.37613 41.9027 9.16027 42.1395 9.99964 42.1395C10.839 42.1395 11.6231 41.9027 12.2821 41.4948V47.325C13.601 46.1596 14.7827 44.8542 16.0906 43.6782C16.975 42.8818 18.2497 42.5643 19.2547 43.3971C20.4991 44.4285 20.0196 45.8927 19.0256 46.8603C17.6368 48.2118 16.2323 49.5492 14.837 50.8946C14.1799 51.5287 13.5218 52.1619 12.8647 52.796C12.2794 53.3609 11.683 54.1227 10.9209 54.4677C9.21181 55.2411 7.97945 53.5924 6.9146 52.5681Z" fill="#FE9802"/>
<path d="M7.79446 2.767C7.74384 2.58608 7.71715 2.39541 7.71715 2.19941H7.86165C7.82852 2.38388 7.80735 2.57367 7.79446 2.767Z" fill="#FE9802"/>
<path d="M12.2554 2.53464C12.2462 2.42113 12.2343 2.30938 12.2195 2.19941H12.2821C12.2821 2.31293 12.2729 2.42556 12.2554 2.53464Z" fill="#FE9802"/>
<path d="M9.99964 40.301C8.87588 40.301 7.93528 39.5313 7.71715 38.5105L7.71715 2.19941C7.71715 2.39541 7.74384 2.58608 7.79446 2.767C7.80735 2.57367 7.82852 2.38388 7.86165 2.19941H7.71715C7.71715 0.984414 8.73967 -5.5075e-08 9.99964 0C11.2596 5.5075e-08 12.2821 0.984414 12.2821 2.19941H12.2195C12.2343 2.30938 12.2462 2.42113 12.2554 2.53464C12.2729 2.42556 12.2821 2.31293 12.2821 2.19941V38.5149C12.0612 39.5339 11.1216 40.301 9.99964 40.301Z" fill="#FE9802"/>
</svg>
